SplineFontDB: 3.0
FontName: Renner-it-BoldItalic
FullName: Renner* Bold Italic
FamilyName: Renner*
Weight: Bold
Copyright: This typeface is licensed under the SIL open font license.
UComments: "2016-6-10: Created with FontForge (http://fontforge.org)"
Version: 002.100
ItalicAngle: -10
UnderlinePosition: -100
UnderlineWidth: 50
Ascent: 800
Descent: 200
InvalidEm: 0
LayerCount: 2
Layer: 0 0 "Back" 1
Layer: 1 0 "Fore" 0
XUID: [1021 31 -699969567 16188444]
FSType: 0
OS2Version: 0
OS2_WeightWidthSlopeOnly: 0
OS2_UseTypoMetrics: 1
CreationTime: 1465610489
ModificationTime: 1513970144
PfmFamily: 33
TTFWeight: 700
TTFWidth: 5
LineGap: 100
VLineGap: 0
OS2TypoAscent: 800
OS2TypoAOffset: 0
OS2TypoDescent: -200
OS2TypoDOffset: 0
OS2TypoLinegap: 100
OS2WinAscent: 900
OS2WinAOffset: 0
OS2WinDescent: 300
OS2WinDOffset: 0
HheadAscent: 900
HheadAOffset: 0
HheadDescent: -200
HheadDOffset: 0
OS2CapHeight: 700
OS2XHeight: 460
OS2Vendor: 'PfEd'
Lookup: 1 0 0 "alt a" { "less simple a"  } ['ss01' ('DFLT' <'dflt' > 'latn' <'dflt' > ) ]
Lookup: 258 0 0 "Lets get our kern on" { "kernin like nobodys business" [150,0,4] } ['kern' ('DFLT' <'dflt' > 'latn' <'dflt' > ) ]
MarkAttachClasses: 1
DEI: 91125
KernClass2: 15 14 "kernin like nobodys business"
 5 A L M
 7 D G O Q
 5 F P Y
 5 K X Z
 1 T
 1 U
 3 V W
 9 a c g q s
 7 b e o p
 7 d i j l
 3 f t
 5 h m n
 5 k x z
 7 r v w y
 3 A M
 7 C G O Q
 1 T
 1 U
 5 V W Y
 3 X Z
 11 a m n p r s
 11 b h i j k l
 11 c d e g o q
 3 f t
 7 u v w y
 3 x z
 12 period comma

StartChar: H
Encoding: 72 72 0
Width: 740
VWidth: 0
Flags: HMW
LayerCount: 2
Fore
SplineSet
166 305 m 1
 188 430 l 1
 698 430 l 1
 676 305 l 1
 166 305 l 1
655 700 m 5
 798 700 l 1
 675 0 l 1
 532 0 l 5
 655 700 l 5
188 700 m 1
 331 700 l 1
 208 0 l 1
 65 0 l 1
 188 700 l 1
EndSplineSet
EndChar

StartChar: O
Encoding: 79 79 1
Width: 830
VWidth: 0
Flags: HMW
LayerCount: 2
Fore
SplineSet
225.254305453 297.899003413 m 0
 225.254305453 174.902497149 310.372070312 108 432 108 c 0
 581.383789062 108 728.897006859 217.564699608 728.897006859 403.597357528 c 4
 728.897006859 515.720910414 646.522460938 592 521 592 c 0
 372.546875 592 225.254305453 477.986481397 225.254305453 297.899003413 c 0
534 720 m 0
 734.875976562 720 873.245117188 585.891601562 873.245117188 410.120117188 c 0
 873.245117188 130.020507812 642.194335938 -20 420 -20 c 0
 215.24609375 -20 80.595703125 113.370117188 80.595703125 288.221679688 c 0
 80.595703125 569.315429688 320.318359375 720 534 720 c 0
EndSplineSet
EndChar

StartChar: I
Encoding: 73 73 2
Width: 270
VWidth: 0
Flags: HMW
LayerCount: 2
Fore
SplineSet
187 700 m 5
 329 700 l 1
 206 0 l 1
 64 0 l 5
 187 700 l 5
EndSplineSet
EndChar

StartChar: C
Encoding: 67 67 3
Width: 695
VWidth: 0
Flags: HMW
LayerCount: 2
Fore
SplineSet
229.586916935 301.028071877 m 0
 229.586916935 180.367783325 314.6875 112 428 112 c 4
 527 112 618 161 673 223 c 5
 640 49 l 5
 577 1 517 -20 415 -20 c 4
 207.112304688 -20 80.2451171875 111.749023438 80.2451171875 284.575195312 c 0
 80.2451171875 547.297851562 289.411132812 710 529 710 c 0
 631 710 703 691 750 643 c 1
 721 477 l 1
 688 539 614 578 515 578 c 0
 377.584960938 578 229.586916935 478.941918792 229.586916935 301.028071877 c 0
EndSplineSet
EndChar

StartChar: E
Encoding: 69 69 4
Width: 580
VWidth: 0
Flags: HMW
LayerCount: 2
Fore
SplineSet
167 0 m 5
 189 125 l 5
 542 125 l 5
 520 0 l 5
 167 0 l 5
268 575 m 5
 290 700 l 5
 643 700 l 5
 621 575 l 5
 268 575 l 5
220 300 m 5
 241 420 l 5
 574 420 l 5
 553 300 l 5
 220 300 l 5
188 700 m 5
 331 700 l 5
 208 0 l 5
 65 0 l 5
 188 700 l 5
EndSplineSet
EndChar

StartChar: F
Encoding: 70 70 6
Width: 525
VWidth: 0
Flags: HMW
LayerCount: 2
Fore
SplineSet
268 575 m 1
 290 700 l 1
 603 700 l 1
 581 575 l 1
 268 575 l 1
220 300 m 1
 241 420 l 1
 544 420 l 1
 523 300 l 1
 220 300 l 1
188 700 m 1
 331 700 l 5
 208 0 l 5
 65 0 l 1
 188 700 l 1
EndSplineSet
EndChar

StartChar: G
Encoding: 71 71 7
Width: 810
VWidth: 0
Flags: HMW
LayerCount: 2
Fore
SplineSet
848 360 m 1
 718 360 l 1
 724 390 l 1
 854 390 l 1
 848 360 l 1
492 265 m 1
 514 390 l 1
 724 390 l 1
 702 265 l 1
 492 265 l 1
848 360 m 1
 808 131 654 -20 430 -20 c 4
 231.80859375 -20 80.1591796875 88.208984375 80.1591796875 284.063476562 c 0
 80.1591796875 552.185546875 294.501953125 720 534 720 c 1
 522 595 l 1
 373.977539062 595 222.368330389 483.692830092 222.368330389 298.961854938 c 0
 222.368330389 174.737387899 309.986328125 97 432 97 c 0
 610 97 693 217 718 360 c 1
 848 360 l 1
720 479 m 1
 689 553 609 595 522 595 c 1
 534 720 l 1
 683 720 783 662 826 565 c 1
 720 479 l 1
EndSplineSet
EndChar

StartChar: T
Encoding: 84 84 8
Width: 510
VWidth: 0
Flags: HMW
LayerCount: 2
Fore
SplineSet
106 575 m 1
 128 700 l 1
 628 700 l 1
 606 575 l 1
 106 575 l 1
308 700 m 1
 451 700 l 5
 328 0 l 5
 185 0 l 1
 308 700 l 1
EndSplineSet
EndChar

StartChar: L
Encoding: 76 76 9
Width: 480
VWidth: 0
Flags: HMW
LayerCount: 2
Fore
SplineSet
167 0 m 1
 189 125 l 1
 502 125 l 1
 480 0 l 1
 167 0 l 1
188 700 m 1
 332 700 l 5
 209 0 l 5
 65 0 l 1
 188 700 l 1
EndSplineSet
EndChar

StartChar: D
Encoding: 68 68 10
Width: 725
VWidth: 0
Flags: HMW
LayerCount: 2
Fore
SplineSet
167 0 m 5
 189 125 l 5
 352 125 l 5
 340 0 l 5
 167 0 l 5
268 575 m 5
 290 700 l 5
 443 700 l 5
 431 575 l 5
 268 575 l 5
188 700 m 5
 330 700 l 5
 207 0 l 5
 65 0 l 5
 188 700 l 5
352 125 m 5
 502.144363174 125 627.212753489 219.141220494 627.212753489 405.599021482 c 4
 627.212753489 500.508242008 551.054445936 575 431 575 c 5
 443 700 l 5
 629.552734375 700 769.110351562 589.13671875 769.110351562 416.461914062 c 4
 769.110351562 141.029296875 580.181640625 0 340 0 c 5
 352 125 l 5
EndSplineSet
EndChar

StartChar: Q
Encoding: 81 81 11
Width: 830
VWidth: 0
Flags: HMW
LayerCount: 2
Fore
SplineSet
225.254305453 297.899003413 m 0
 225.254305453 174.902497149 310.372070312 108 432 108 c 4
 581.383789062 108 728.897006859 217.564699608 728.897006859 403.597357528 c 0
 728.897006859 525.720910414 646.522460938 592 521 592 c 0
 372.546875 592 225.254305453 477.986481397 225.254305453 297.899003413 c 0
534 720 m 0
 734.875976562 720 873.245117188 585.891601562 873.245117188 410.120117188 c 0
 873.245117188 130.020507812 642.194335938 -20 420 -20 c 4
 215.24609375 -20 80.595703125 113.370117188 80.595703125 288.221679688 c 0
 80.595703125 569.315429688 320.318359375 720 534 720 c 0
410 320 m 1
 585 320 l 1
 865 -20 l 1
 690 -20 l 1
 410 320 l 1
EndSplineSet
EndChar

StartChar: A
Encoding: 65 65 12
Width: 740
VWidth: 0
Flags: HMW
LayerCount: 2
Fore
SplineSet
217 170 m 1
 238 290 l 1
 608 290 l 1
 587 170 l 1
 217 170 l 1
425 565 m 5
 502 720 l 5
 745 0 l 1
 597 0 l 1
 425 565 l 5
502 720 m 5
 530 565 l 5
 147 0 l 1
 -5 0 l 1
 502 720 l 5
EndSplineSet
EndChar

StartChar: R
Encoding: 82 82 13
Width: 585
VWidth: 0
Flags: HMW
LayerCount: 2
Fore
SplineSet
364 250 m 1
 376 375 l 1
 449.705518363 375 509.153148243 416.426256725 509.153148243 497.486662036 c 0
 509.153148243 548.708902175 466.675587868 575 411 575 c 1
 423 700 l 1
 549.854492188 700 651.359375 637.95703125 651.359375 511.584960938 c 0
 651.359375 350.553710938 538.672851562 250 364 250 c 1
211 250 m 1
 233 375 l 1
 376 375 l 1
 364 250 l 1
 211 250 l 1
268 575 m 1
 290 700 l 1
 423 700 l 1
 411 575 l 1
 268 575 l 1
188 700 m 1
 328 700 l 1
 205 0 l 1
 65 0 l 1
 188 700 l 1
266 350 m 5
 417 350 l 1
 595 0 l 1
 444 0 l 5
 266 350 l 5
EndSplineSet
EndChar

StartChar: V
Encoding: 86 86 14
Width: 720
VWidth: 0
Flags: HMW
LayerCount: 2
Fore
SplineSet
428 145 m 5
 351 -20 l 5
 108 700 l 1
 256 700 l 1
 428 145 l 5
351 -20 m 5
 319 145 l 5
 698 700 l 1
 858 700 l 1
 351 -20 l 5
EndSplineSet
EndChar

StartChar: M
Encoding: 77 77 15
Width: 920
VWidth: 0
Flags: HMW
LayerCount: 2
Fore
SplineSet
227 490 m 5
 268 715 l 5
 536 170 l 1
 471 -15 l 1
 227 490 l 5
268 715 m 5
 333 475 l 5
 165 0 l 1
 20 0 l 1
 268 715 l 5
777 485 m 5
 908 715 l 5
 900 0 l 1
 759 0 l 1
 777 485 l 5
908 715 m 5
 867 445 l 5
 471 -15 l 1
 466 183 l 1
 908 715 l 5
EndSplineSet
EndChar

StartChar: W
Encoding: 87 87 16
Width: 1020
VWidth: 0
Flags: HMWO
LayerCount: 2
Fore
SplineSet
801 195 m 1
 725 -25 l 1
 559 505 l 1
 645 725 l 1
 801 195 l 1
725 -25 m 1
 695 160 l 1
 1005 700 l 1
 1158 700 l 1
 725 -25 l 1
370 160 m 1
 275 -25 l 1
 108 700 l 1
 260 700 l 1
 370 160 l 1
275 -25 m 1
 293 195 l 1
 645 725 l 1
 659 505 l 5
 275 -25 l 1
EndSplineSet
EndChar

StartChar: N
Encoding: 78 78 17
Width: 775
VWidth: 0
Flags: HMW
LayerCount: 2
Fore
SplineSet
189 527 m 5
 195 715 l 1
 709 167 l 1
 704 -15 l 1
 189 527 l 5
690 700 m 1
 833 700 l 1
 704 -15 l 1
 586 125 l 1
 690 700 l 1
195 715 m 1
 313 575 l 1
 208 0 l 1
 65 0 l 1
 195 715 l 1
EndSplineSet
EndChar

StartChar: a
Encoding: 97 97 18
Width: 625
VWidth: 0
Flags: HMW
LayerCount: 2
Fore
SplineSet
338.150390625 480 m 0
 436.815429688 480 511.620117188 405.655273438 511.620117188 290.4375 c 0
 511.620117188 110.6328125 386.904296875 -20 269.150390625 -20 c 0
 150.02734375 -20 64.5302734375 61.7294921875 64.5302734375 199.846679688 c 4
 64.5302734375 371.908203125 211.006835938 480 338.150390625 480 c 0
203.763671875 203.3515625 m 0
 203.763671875 138.37890625 249.775390625 100 316.150390625 100 c 0
 382.731445312 100 473.219726562 147.96484375 473.219726562 262.541015625 c 0
 473.219726562 333.8203125 422.575195312 360 361.150390625 360 c 0
 282.283203125 360 203.763671875 310.47265625 203.763671875 203.3515625 c 0
512 460 m 1
 647 460 l 1
 565 0 l 1
 430 0 l 1
 512 460 l 1
EndSplineSet
Substitution2: "less simple a" a.alt
EndChar

StartChar: X
Encoding: 88 88 19
Width: 635
VWidth: 0
Flags: HMW
LayerCount: 2
Fore
SplineSet
140 700 m 1
 291 700 l 1
 643 0 l 1
 492 0 l 1
 140 700 l 1
595 700 m 1
 755 700 l 5
 147 0 l 5
 -13 0 l 1
 595 700 l 1
EndSplineSet
EndChar

StartChar: K
Encoding: 75 75 20
Width: 651
VWidth: 0
Flags: HMW
LayerCount: 2
Fore
SplineSet
234 380 m 5
 403 380 l 1
 661 0 l 1
 492 0 l 5
 234 380 l 5
588 700 m 1
 769 700 l 1
 406 370 l 1
 225 370 l 1
 588 700 l 1
188 700 m 1
 332 700 l 1
 209 0 l 1
 65 0 l 1
 188 700 l 1
EndSplineSet
EndChar

StartChar: Y
Encoding: 89 89 21
Width: 575
VWidth: 0
Flags: HMW
LayerCount: 2
Fore
SplineSet
279 360 m 1
 418 360 l 5
 355 0 l 5
 216 0 l 1
 279 360 l 1
103 700 m 1
 248 700 l 1
 395 310 l 1
 287 240 l 1
 103 700 l 1
563 700 m 1
 718 700 l 1
 362 240 l 1
 270 310 l 1
 563 700 l 1
EndSplineSet
EndChar

StartChar: B
Encoding: 66 66 22
Width: 613
VWidth: 0
Flags: HMW
LayerCount: 2
Fore
SplineSet
352 350 m 1
 356 430 l 1
 429.107421875 430 483.292287093 460.791338008 483.292287093 519.067778009 c 0
 483.292287093 555.881948964 453.4765625 575 401 575 c 1
 413 700 l 1
 561.049662421 700 626.432617188 633.6796875 626.432617188 537.288085938 c 0
 626.432617188 417.251953125 518.090858328 350 352 350 c 1
320 0 m 1
 332 125 l 1
 405.989328951 125 472.83984375 148.686523438 472.83984375 229.29296875 c 4
 472.83984375 281.686523438 432.762695312 310 375 310 c 1
 371 400 l 1
 494.482421875 400 612.905273438 338.963867188 612.905273438 231.536132812 c 0
 612.905273438 49.4375 486.353515625 0 320 0 c 1
167 0 m 1
 189 125 l 1
 332 125 l 1
 320 0 l 1
 167 0 l 1
268 575 m 1
 290 700 l 1
 413 700 l 1
 401 575 l 1
 268 575 l 1
222 310 m 1
 243 430 l 1
 376 430 l 1
 375 310 l 1
 222 310 l 1
188 700 m 1
 328 700 l 1
 205 0 l 1
 65 0 l 1
 188 700 l 1
EndSplineSet
EndChar

StartChar: Z
Encoding: 90 90 23
Width: 590
VWidth: 0
Flags: HMW
LayerCount: 2
Fore
SplineSet
10 0 m 1
 125 115 l 1
 555 115 l 1
 535 0 l 1
 10 0 l 1
156 575 m 1
 178 700 l 1
 703 700 l 1
 596 575 l 1
 156 575 l 1
548 700 m 1
 703 700 l 1
 165 0 l 5
 10 0 l 1
 548 700 l 1
EndSplineSet
EndChar

StartChar: o
Encoding: 111 111 24
Width: 576
VWidth: 0
Flags: HMW
LayerCount: 2
Fore
SplineSet
364 485 m 4
 499.287109375 485 601.349609375 408.1171875 601.349609375 268.001953125 c 4
 601.349609375 77.5869140625 452.78125 -25 294 -25 c 4
 178.712890625 -25 56.650390625 51.8828125 56.650390625 191.998046875 c 4
 56.650390625 382.413085938 225.21875 485 364 485 c 4
193.994701535 197.066464888 m 4
 193.994701535 130.441675961 234.767872188 90 304 90 c 4
 381.08149491 90 463.956562789 157.364347073 463.956562789 262.445660264 c 4
 463.956562789 329.360843704 422.400955311 370 353 370 c 4
 275.765124311 370 193.994701535 302.266473809 193.994701535 197.066464888 c 4
EndSplineSet
EndChar

StartChar: J
Encoding: 74 74 25
Width: 265
VWidth: 0
Flags: HMW
LayerCount: 2
Fore
SplineSet
191 -50 m 5
 60 -20 l 5
 188 700 l 1
 325 700 l 1
 191 -50 l 5
-82 -44 m 5
 -72 -67 -53 -95 -17 -95 c 4
 13 -95 48 -86 60 -20 c 5
 191 -50 l 5
 170 -169 100 -220 -24 -220 c 4
 -97 -220 -158 -180 -169 -160 c 1
 -82 -44 l 5
EndSplineSet
EndChar

StartChar: t
Encoding: 116 116 26
Width: 285
VWidth: 0
Flags: HMW
LayerCount: 2
Fore
SplineSet
81 460 m 1
 366 460 l 1
 346 345 l 1
 61 345 l 1
 81 460 l 1
184 620 m 1
 319 620 l 1
 210 0 l 1
 75 0 l 1
 184 620 l 1
EndSplineSet
EndChar

StartChar: d
Encoding: 100 100 27
Width: 625
VWidth: 0
Flags: HMW
LayerCount: 2
Fore
SplineSet
338.150390625 480 m 4
 436.815429688 480 511.620117188 405.655273438 511.620117188 290.4375 c 4
 511.620117188 110.6328125 386.904296875 -20 269.150390625 -20 c 4
 150.02734375 -20 64.5302734375 51.7294921875 64.5302734375 189.846679688 c 4
 64.5302734375 381.908203125 191.006835938 480 338.150390625 480 c 4
203.763671875 203.3515625 m 4
 203.763671875 138.37890625 249.775390625 100 316.150390625 100 c 4
 382.731445312 100 473.219726562 147.96484375 473.219726562 262.541015625 c 4
 473.219726562 333.8203125 422.575195312 360 361.150390625 360 c 4
 282.283203125 360 203.763671875 310.47265625 203.763671875 203.3515625 c 4
568 780 m 5
 703 780 l 5
 565 0 l 5
 430 0 l 5
 568 780 l 5
EndSplineSet
EndChar

StartChar: l
Encoding: 108 108 28
Width: 260
VWidth: 0
Flags: HMW
LayerCount: 2
Fore
SplineSet
198 780 m 1
 333 780 l 1
 195 0 l 1
 60 0 l 1
 198 780 l 1
EndSplineSet
EndChar

StartChar: i
Encoding: 105 105 29
Width: 256
VWidth: 0
Flags: HMW
LayerCount: 2
Fore
SplineSet
158 642 m 4
 158 685 195 720 241 720 c 4
 287 720 324 685 324 642 c 4
 324 599 287 564 241 564 c 4
 195 564 158 599 158 642 c 4
139 460 m 1
 278 460 l 1
 197 0 l 1
 58 0 l 1
 139 460 l 1
EndSplineSet
EndChar

StartChar: r
Encoding: 114 114 30
Width: 433
VWidth: 0
Flags: HMW
LayerCount: 2
Fore
SplineSet
281 460 m 1
 200 0 l 1
 60 0 l 1
 141 460 l 1
 281 460 l 1
416 322 m 1
 397 338 379 345 353 345 c 0
 298 345 258 326 246 260 c 1
 213 280 l 1
 232 389 326 475 391 475 c 0
 454 475 485 459 504 430 c 1
 416 322 l 1
EndSplineSet
EndChar

StartChar: c
Encoding: 99 99 31
Width: 513
VWidth: 0
Flags: HMW
LayerCount: 2
Fore
SplineSet
204.5546875 197.756835938 m 4
 204.5546875 142.732421875 244.974609375 98 315 98 c 4
 389 98 461 132 488 167 c 1
 460 14 l 1
 424 -9 367 -25 304 -25 c 0
 148.024414062 -25 61.533203125 67.9658203125 61.533203125 190.2734375 c 0
 61.533203125 363.0703125 208.486152539 485 384 485 c 0
 447 485 509 465 537 446 c 1
 510 294 l 1
 495 329 436 362 372 362 c 0
 281.029628826 362 204.5546875 296.912109375 204.5546875 197.756835938 c 4
EndSplineSet
EndChar

StartChar: b
Encoding: 98 98 32
Width: 620
VWidth: 0
Flags: HMW
LayerCount: 2
Fore
SplineSet
328 780 m 5
 190 0 l 5
 55 0 l 5
 193 780 l 5
 328 780 l 5
363 -20 m 4
 264.334960938 -20 189.530438338 54.344654434 189.530438338 169.5629832 c 4
 189.530438338 349.366999389 314.24609375 480 432 480 c 4
 551.123046875 480 636.620117188 408.270507812 636.620117188 270.153320312 c 4
 636.620117188 78.091796875 510.143554688 -20 363 -20 c 4
497.38671875 256.6484375 m 4
 497.38671875 321.62109375 451.375430887 360 385 360 c 4
 318.418842909 360 227.930411077 312.035090194 227.930411077 197.459007944 c 4
 227.930411077 126.180045232 278.575196226 100 340 100 c 4
 418.867766948 100 497.38671875 149.52734375 497.38671875 256.6484375 c 4
EndSplineSet
EndChar

StartChar: p
Encoding: 112 112 33
Width: 610
VWidth: 0
Flags: HMW
LayerCount: 2
Fore
SplineSet
362.849609375 -20 m 0
 264.184570312 -20 189.379882812 54.3447265625 189.379882812 169.5625 c 0
 189.379882812 349.3671875 314.095703125 480 431.849609375 480 c 0
 550.97265625 480 636.469726562 408.270507812 636.469726562 270.153320312 c 0
 636.469726562 78.091796875 509.993164062 -20 362.849609375 -20 c 0
497.236328125 256.6484375 m 0
 497.236328125 321.62109375 451.224609375 360 384.849609375 360 c 0
 318.268554688 360 227.780273438 312.03515625 227.780273438 197.458984375 c 0
 227.780273438 126.1796875 278.424804688 100 339.849609375 100 c 0
 418.716796875 100 497.236328125 149.52734375 497.236328125 256.6484375 c 0
151 -220 m 1
 16 -220 l 1
 136 460 l 1
 271 460 l 1
 151 -220 l 1
EndSplineSet
EndChar

StartChar: q
Encoding: 113 113 34
Width: 610
VWidth: 0
Flags: HMW
LayerCount: 2
Fore
SplineSet
328 480 m 0
 426.665039062 480 501.469726562 405.655273438 501.469726562 290.4375 c 0
 501.469726562 110.6328125 376.75390625 -20 259 -20 c 0
 139.876953125 -20 54.3798828125 51.7294921875 54.3798828125 189.846679688 c 0
 54.3798828125 381.908203125 180.856445312 480 328 480 c 0
193.61328125 203.3515625 m 0
 193.61328125 138.37890625 239.625 100 306 100 c 0
 372.581054688 100 463.069335938 147.96484375 463.069335938 262.541015625 c 0
 463.069335938 333.8203125 412.424804688 360 351 360 c 0
 272.131835938 360 193.61328125 310.47265625 193.61328125 203.3515625 c 0
381 -220 m 1
 501 460 l 1
 636 460 l 1
 516 -220 l 1
 381 -220 l 1
EndSplineSet
EndChar

StartChar: h
Encoding: 104 104 35
Width: 565
VWidth: 0
Flags: HMW
LayerCount: 2
Fore
SplineSet
560 310 m 1
 505 0 l 1
 370 0 l 1
 419 280 l 1
 560 310 l 1
333 780 m 1
 195 0 l 1
 60 0 l 1
 198 780 l 1
 333 780 l 1
560 310 m 1
 419 280 l 1
 432 351 413 376 363 376 c 0
 308 376 256 346 244 280 c 1
 218 280 l 1
 237 389 307 481 422 481 c 4
 537 481 579 419 560 310 c 1
EndSplineSet
EndChar

StartChar: n
Encoding: 110 110 36
Width: 565
VWidth: 0
Flags: HMW
LayerCount: 2
Fore
SplineSet
560 310 m 5
 505 0 l 5
 370 0 l 5
 419 280 l 5
 560 310 l 5
276 460 m 5
 195 0 l 5
 60 0 l 5
 141 460 l 5
 276 460 l 5
560 310 m 5
 419 280 l 5
 432 351 413 376 363 376 c 4
 308 376 256 346 244 280 c 5
 218 280 l 5
 237 389 317 481 432 481 c 4
 527 481 579 419 560 310 c 5
EndSplineSet
EndChar

StartChar: m
Encoding: 109 109 37
Width: 845
VWidth: 0
Flags: HMW
LayerCount: 2
Fore
SplineSet
838 300 m 1
 785 0 l 1
 650 0 l 1
 699 280 l 1
 838 300 l 1
838 300 m 1
 699 280 l 1
 709 336 691 361 641 361 c 0
 586 361 552 326 544 280 c 1
 498 280 l 1
 517 389 605 471 700 471 c 4
 815 471 859 419 838 300 c 1
546 290 m 1
 495 0 l 1
 360 0 l 1
 409 280 l 1
 546 290 l 1
286 460 m 1
 205 0 l 1
 60 0 l 1
 141 460 l 1
 286 460 l 1
546 290 m 1
 409 280 l 1
 419 336 401 361 351 361 c 0
 296 361 262 326 254 280 c 1
 218 280 l 1
 234 369 325 471 410 471 c 4
 525 471 567 409 546 290 c 1
EndSplineSet
EndChar

StartChar: k
Encoding: 107 107 38
Width: 545
VWidth: 0
Flags: W
HStem: 0 21G<60 198.538 382.63 555> 440 20G<403 616> 760 20G<194.462 333>
DStem2: 388 270 228 270 0.526029 -0.850466<0 233.308>
LayerCount: 2
Fore
SplineSet
228 270 m 1
 388 270 l 1
 555 0 l 1
 395 0 l 1
 228 270 l 1
427 460 m 5
 616 460 l 1
 388 270 l 1
 199 270 l 5
 427 460 l 5
198 780 m 1
 333 780 l 1
 195 0 l 1
 60 0 l 1
 198 780 l 1
EndSplineSet
EndChar

StartChar: u
Encoding: 117 117 39
Width: 565
VWidth: 0
Flags: HMW
LayerCount: 2
Fore
SplineSet
86 150 m 1
 227 180 l 1
 214 109 233 84 283 84 c 0
 338 84 390 114 402 180 c 1
 428 180 l 1
 409 71 329 -21 214 -21 c 0
 119 -21 67 41 86 150 c 1
86 150 m 1
 141 460 l 1
 276 460 l 1
 227 180 l 1
 86 150 l 1
370 0 m 1
 451 460 l 1
 586 460 l 1
 505 0 l 1
 370 0 l 1
EndSplineSet
EndChar

StartChar: e
Encoding: 101 101 40
Width: 545
VWidth: 0
Flags: HMW
LayerCount: 2
Fore
SplineSet
190 195 m 5
 208 294 l 5
 556 294 l 5
 557 195 l 5
 190 195 l 5
557 195 m 5
 429 250 l 5
 431.621606839 265.030545877 432.929740949 278.93089429 432.929740949 291.636981814 c 4
 432.929740949 351.631083355 403.765834751 385 346 385 c 4
 288.674442858 385 223.133336963 340.270901228 206.066421425 270 c 5
 224 270 l 5
 207 230 l 5
 197 230 l 5
 194.559128932 216.216257499 193.396412872 203.401438955 193.396412872 191.561464315 c 4
 193.396412872 120.939250961 234.763671875 85 293 85 c 4
 350 85 392 116 419 156 c 5
 541 127 l 5
 492 52 423 -20 284 -20 c 4
 138.370962078 -20 56.6185437434 66.4671313921 56.6185437434 182.336344327 c 4
 56.6185437434 351.945627107 180.458554688 485 354 485 c 4
 476.567839665 485 571.489983378 406.111224735 571.489983378 287.681035731 c 4
 571.489983378 250.717949193 568.667011985 229.734645544 557 195 c 5
EndSplineSet
EndChar

StartChar: g
Encoding: 103 103 41
Width: 625
VWidth: 0
Flags: HMW
LayerCount: 2
Fore
SplineSet
343.150390625 480 m 0
 441.815429688 480 516.620117188 405.655273438 516.620117188 290.4375 c 0
 516.620117188 110.6328125 391.904296875 -15 274.150390625 -15 c 0
 155.02734375 -15 69.5302734375 51.7294921875 69.5302734375 189.846679688 c 0
 69.5302734375 381.908203125 196.006835938 480 343.150390625 480 c 0
208.763671875 203.3515625 m 0
 208.763671875 138.37890625 254.775390625 105 321.150390625 105 c 0
 387.731445312 105 478.219726562 147.96484375 478.219726562 262.541015625 c 0
 478.219726562 333.8203125 427.575195312 360 366.150390625 360 c 0
 287.283203125 360 208.763671875 310.47265625 208.763671875 203.3515625 c 0
19 -35 m 1
 156 -35 l 1
 155 -86 195 -125 275 -125 c 4
 345 -125 420 -86 437 10 c 1
 572 10 l 1
 539 -179 419 -245 264 -245 c 4
 119 -245 15 -159 19 -35 c 1
437 10 m 1
 516 460 l 1
 651 460 l 1
 572 10 l 1
 437 10 l 1
EndSplineSet
EndChar

StartChar: f
Encoding: 102 102 42
Width: 349
VWidth: 0
Flags: HMW
LayerCount: 2
Fore
SplineSet
96 460 m 1
 411 460 l 1
 391 345 l 1
 76 345 l 1
 96 460 l 1
191 630 m 1
 322 605 l 1
 215 0 l 1
 80 0 l 1
 191 630 l 1
452 645 m 5
 442 668 427 680 393 680 c 4
 363 680 332 661 322 605 c 5
 191 630 l 5
 208 729 265 800 399 800 c 4
 462 800 511 773 522 753 c 5
 452 645 l 5
EndSplineSet
EndChar

StartChar: s
Encoding: 115 115 43
Width: 468
VWidth: 0
Flags: HMW
LayerCount: 2
Fore
SplineSet
169 161 m 1
 173 115 204 90 251 90 c 0
 285.366153794 90 318.373253465 104.648617501 318.373253465 135.424693814 c 0
 318.373253465 162.803029126 274.442145219 179.85261826 226 196 c 0
 172.048152107 213.983949298 111.627929688 242.862304688 111.627929688 332.986328125 c 4
 111.627929688 419.614257812 186.2734375 485 304 485 c 0
 407 485 472 431 487 360 c 1
 376 324 l 1
 358 362 339 384 302 384 c 0
 275.364640253 384 250.627929688 367.157226562 250.627929688 343.010742188 c 0
 250.627929688 318.090820312 274.8984375 308.850585938 330 287 c 0
 384.034179688 265.741210938 458.852539062 243.55859375 458.852539062 150.665039062 c 0
 458.852539062 29.2626953125 365.56640625 -25 251 -25 c 0
 126 -25 48 48 47 123 c 1
 169 161 l 1
EndSplineSet
EndChar

StartChar: y
Encoding: 121 121 44
Width: 520
VWidth: 0
Flags: HW
LayerCount: 2
Fore
SplineSet
244 114 m 0
 308 114 l 0
 616 460 l 1
 196 -220 l 1
 42 -220 l 1
 244 114 l 0
462 460 m 1
 616 460 l 1
 267 -15 l 1
 246 85 l 1
 462 460 l 1
66 460 m 1
 222 460 l 5
 306 85 l 5
 212 -15 l 1
 66 460 l 1
EndSplineSet
EndChar

StartChar: w
Encoding: 119 119 45
Width: 735
VWidth: 0
Flags: HW
LayerCount: 2
Fore
SplineSet
676 460 m 1
 831 460 l 1
 515 -55 l 1
 517 155 l 1
 676 460 l 1
394 315 m 1
 451 505 l 5
 566 135 l 5
 515 -55 l 1
 394 315 l 1
454 505 m 1
 456 315 l 1
 205 -55 l 1
 214 135 l 1
 454 505 l 1
66 460 m 1
 211 460 l 1
 267 155 l 1
 205 -55 l 1
 66 460 l 1
EndSplineSet
EndChar

StartChar: v
Encoding: 118 118 46
Width: 500
VWidth: 0
Flags: HW
LayerCount: 2
Fore
SplineSet
436 460 m 5
 596 460 l 1
 240 -55 l 1
 251 150 l 5
 436 460 l 5
66 460 m 1
 216 460 l 1
 291 150 l 1
 240 -55 l 1
 66 460 l 1
EndSplineSet
EndChar

StartChar: x
Encoding: 120 120 47
Width: 510
VWidth: 0
Flags: HW
LayerCount: 2
Fore
SplineSet
77 460 m 1
 225 460 l 1
 524 0 l 1
 386 0 l 1
 77 460 l 1
445 460 m 5
 597 460 l 1
 146 0 l 1
 -16 0 l 1
 445 460 l 5
EndSplineSet
EndChar

StartChar: z
Encoding: 122 122 48
Width: 470
VWidth: 0
Flags: HMW
LayerCount: 2
Fore
SplineSet
132 125 m 1
 452 125 l 1
 430 0 l 1
 0 0 l 1
 132 125 l 1
121 460 m 1
 551 460 l 1
 429 335 l 1
 99 335 l 1
 121 460 l 1
396 460 m 1
 551 460 l 1
 155 0 l 5
 0 0 l 1
 396 460 l 1
EndSplineSet
EndChar

StartChar: j
Encoding: 106 106 49
Width: 271
VWidth: 0
Flags: HMW
LayerCount: 2
Fore
SplineSet
-77 -85 m 1
 -67 -108 -52 -120 -18 -120 c 0
 12 -120 41 -106 51 -50 c 5
 184 -70 l 1
 167 -169 110 -240 -24 -240 c 0
 -87 -240 -136 -213 -147 -193 c 1
 -77 -85 l 1
158 642 m 0
 158 685 195 720 241 720 c 0
 287 720 324 685 324 642 c 0
 324 599 287 564 241 564 c 0
 195 564 158 599 158 642 c 0
184 -70 m 1
 51 -50 l 1
 141 460 l 1
 277 460 l 1
 184 -70 l 1
EndSplineSet
EndChar

StartChar: P
Encoding: 80 80 50
Width: 588
VWidth: 0
Flags: HMW
LayerCount: 2
Fore
SplineSet
364 250 m 5
 376 375 l 5
 449.705518363 375 509.153148243 416.426256725 509.153148243 497.486662036 c 4
 509.153148243 548.708902175 466.675587868 575 411 575 c 5
 423 700 l 5
 549.854492188 700 651.359375 637.95703125 651.359375 511.584960938 c 4
 651.359375 350.553710938 538.672851562 250 364 250 c 5
211 250 m 5
 233 375 l 5
 376 375 l 5
 364 250 l 5
 211 250 l 5
268 575 m 5
 290 700 l 5
 423 700 l 5
 411 575 l 5
 268 575 l 5
188 700 m 5
 328 700 l 5
 205 0 l 5
 65 0 l 5
 188 700 l 5
EndSplineSet
EndChar

StartChar: U
Encoding: 85 85 51
Width: 656
VWidth: 0
Flags: HMW
LayerCount: 2
Fore
SplineSet
579 700 m 1
 719 700 l 1
 642 250 l 5
 502 250 l 5
 579 700 l 1
183 700 m 1
 323 700 l 1
 246 250 l 5
 106 250 l 5
 183 700 l 1
338 -10 m 4
 200.21484375 -10 100.388671875 52.908203125 100.388671875 190.361328125 c 4
 100.388671875 208.877929688 102.201171875 228.748046875 106 250 c 5
 246 250 l 5
 243.977539062 238.178710938 242.923828125 226.768554688 242.923828125 215.927734375 c 4
 242.923828125 157.073242188 268.999023438 115 340 115 c 4
 430 115 489 174 502 250 c 5
 642 250 l 5
 610 71 488 -10 338 -10 c 4
EndSplineSet
EndChar

StartChar: S
Encoding: 83 83 52
Width: 587
VWidth: 0
Flags: HMW
LayerCount: 2
Fore
SplineSet
181 246 m 1
 206 160 260 123 337 123 c 0
 402.241210938 123 450.842773438 139.383789062 450.842773438 203.083984375 c 0
 450.842773438 267.345703125 382.411132812 296.938476562 315 327 c 0
 258.060546875 352.306640625 163.896484375 392.668945312 163.896484375 505.30859375 c 0
 163.896484375 646.833007812 274.807617188 710 416 710 c 0
 549 710 623 625 638 564 c 1
 521 484 l 1
 501 542 474 584 404 584 c 0
 349.161132812 584 310.61750472 556.110711128 310.61750472 519.548038898 c 0
 310.61750472 466.00681715 370.83203125 450.43359375 440 420 c 0
 500.77734375 393.693359375 595 339.118164062 595 223.852539062 c 0
 595 64.33203125 484.30859375 -10 326 -10 c 0
 191 -10 84 74 60 169 c 1
 181 246 l 1
EndSplineSet
EndChar

StartChar: at
Encoding: 64 64 53
Width: 770
VWidth: 0
Flags: HMW
LayerCount: 2
Fore
SplineSet
386 65 m 1
 476 65 517 85 585 107 c 1
 626 20 l 5
 560 -12 513 -35 369 -35 c 1
 386 65 l 1
463 540 m 0
 519.286132812 540 545.66891157 504.482483654 545.66891157 454.643709852 c 0
 545.66891157 290.341673023 464.432617188 140 363 140 c 0
 279.131835938 140 231.696289062 203.62109375 231.696289062 282.641601562 c 0
 231.696289062 432.512695312 375.1796875 540 463 540 c 0
349.205482912 290.096342638 m 0
 349.205482912 263.886199087 360.33401779 245 391 245 c 0
 430.228019355 245 501.881342211 305.919406683 501.881342211 390.114243228 c 0
 501.881342211 418.736466901 487.92773208 435 455 435 c 0
 409.174734623 435 349.205482912 365.074739763 349.205482912 290.096342638 c 0
534 730 m 4
 733.30078125 730 834.1796875 586.1953125 834.1796875 438.331054688 c 0
 834.1796875 250.870117188 679.127572879 130 574 130 c 0
 515.657636294 130 476.221695773 173.214681567 476.221695773 225.24323187 c 0
 476.221695773 236.531058157 478.077915515 248.233746544 482 260 c 0
 482.298074113 260.819703811 482.435110906 261.46726428 482.435110906 261.967509538 c 0
 482.435110906 262.994551588 481.857483656 263.400641569 480.909929173 263.400641569 c 0
 477.328167624 263.400641569 468.460721265 257.59824732 465.525552308 257.59824732 c 0
 464.918234126 257.59824732 464.564889094 257.846659903 464.564889094 258.446283565 c 0
 464.564889094 258.819703811 464.701925887 259.329333245 465 260 c 2
 557 520 l 1
 671 520 l 1
 592 299 l 2
 590 292 586 280 585 272 c 0
 584.130070965 266.780425792 583.638530193 262.128433978 583.638530193 258.044024558 c 0
 583.638530193 243.348008186 590.00209195 236 608 236 c 0
 644.260099359 236 718.316947761 312.804805643 718.316947761 437.690511007 c 0
 718.316947761 541.595088503 654.649167849 630 526 630 c 0
 325.479445414 630 175.064816309 468.138685978 175.064816309 256.541724119 c 0
 175.064816309 139.447729054 243.9296875 65 386 65 c 1
 369 -35 l 1
 166.5625 -35 58.9052734375 91.7548828125 58.9052734375 252.098632812 c 0
 58.9052734375 531.431640625 273.983398438 730 534 730 c 4
EndSplineSet
EndChar

StartChar: period
Encoding: 46 46 54
Width: 276
VWidth: 0
Flags: HMW
LayerCount: 2
Fore
SplineSet
55 50 m 0
 55 94 92 130 138 130 c 0
 184 130 221 94 221 50 c 0
 221 6 184 -30 138 -30 c 0
 92 -30 55 6 55 50 c 0
EndSplineSet
EndChar

StartChar: comma
Encoding: 44 44 55
Width: 308
VWidth: 0
Flags: HMW
LayerCount: 2
Fore
SplineSet
145 112 m 5
 264 74 l 1
 105 -176 l 1
 12 -147 l 5
 145 112 l 5
EndSplineSet
EndChar

StartChar: exclam
Encoding: 33 33 59
Width: 300
VWidth: 0
Flags: HMW
LayerCount: 2
Fore
SplineSet
188 700 m 1
 358 700 l 1
 220 200 l 5
 130 200 l 5
 188 700 l 1
EndSplineSet
Refer: 54 46 N 1 0 0 1 12 0 2
EndChar

StartChar: quotesingle
Encoding: 39 39 60
Width: 295
VWidth: 0
Flags: HMW
LayerCount: 2
Fore
SplineSet
243 700 m 5
 388 700 l 1
 241 400 l 1
 151 400 l 5
 243 700 l 5
EndSplineSet
EndChar

StartChar: numbersign
Encoding: 35 35 61
Width: 605
VWidth: 0
Flags: HMW
LayerCount: 2
Fore
SplineSet
139 420 m 1
 158 525 l 1
 653 525 l 1
 634 420 l 1
 139 420 l 1
77 180 m 1
 95 285 l 1
 590 285 l 1
 572 180 l 1
 77 180 l 1
553 700 m 5
 673 700 l 5
 380 0 l 5
 260 0 l 5
 553 700 l 5
343 700 m 5
 463 700 l 5
 170 0 l 5
 50 0 l 5
 343 700 l 5
EndSplineSet
EndChar

StartChar: hyphen
Encoding: 45 45 62
Width: 210
VWidth: 0
Flags: HMW
LayerCount: 2
Fore
SplineSet
41 180 m 1
 53 295 l 5
 253 295 l 5
 241 180 l 1
 41 180 l 1
EndSplineSet
EndChar

StartChar: dollar
Encoding: 36 36 63
Width: 587
VWidth: 0
Flags: HMW
LayerCount: 2
Fore
SplineSet
477.446808511 666 m 1
 399.446808511 666 l 1
 433 832 l 1
 511 832 l 1
 477.446808511 666 l 1
355.361702128 62 m 1
 321 -108 l 1
 243 -108 l 1
 277.361702128 62 l 1
 355.361702128 62 l 1
EndSplineSet
Refer: 52 83 N 1 0 0 1 0 0 2
EndChar

StartChar: bar
Encoding: 124 124 64
Width: 329
VWidth: 0
Flags: HMW
LayerCount: 2
Fore
SplineSet
238 785 m 1
 367 785 l 5
 191 -215 l 5
 62 -215 l 1
 238 785 l 1
EndSplineSet
EndChar

StartChar: zero
Encoding: 48 48 65
Width: 640
VWidth: 0
Flags: HMW
LayerCount: 2
Fore
SplineSet
223.191747999 258.589671285 m 0
 223.191747999 159.414820982 261.301370278 100 338 100 c 0
 454.459860954 100 540.808252001 260.634071947 540.808252001 441.410328715 c 0
 540.808252001 540.585179018 502.698629722 600 426 600 c 0
 309.540139046 600 223.191747999 439.365928053 223.191747999 258.589671285 c 0
438 725 m 0
 569.840820312 725 680.8984375 605.323242188 680.8984375 436.674804688 c 4
 680.8984375 143.866210938 499.301757812 -25 326 -25 c 4
 194.159179688 -25 83.1015625 74.6767578125 83.1015625 263.325195312 c 0
 83.1015625 536.133789062 264.698242188 725 438 725 c 0
EndSplineSet
EndChar

StartChar: one
Encoding: 49 49 66
Width: 495
VWidth: 0
Flags: HMW
LayerCount: 2
Fore
SplineSet
162 524 m 5
 186 657 l 1
 514 730 l 1
 435 597 l 5
 162 524 l 5
363 690 m 1
 514 730 l 1
 385 0 l 1
 241 0 l 1
 363 690 l 1
EndSplineSet
EndChar

StartChar: two
Encoding: 50 50 67
Width: 574
VWidth: 0
Flags: HMW
LayerCount: 2
Fore
SplineSet
24 0 m 1
 135 120 l 1
 565 120 l 1
 544 0 l 1
 24 0 l 1
480 267 m 6
 123 0 l 5
 -20 0 l 1
 380 335 l 1
 458.160033957 398.949118692 491.433851569 454.327518865 491.433851569 522.966872253 c 0
 491.433851569 564.491642253 459.694331089 601 403 601 c 4
 333 601 263 556 246 460 c 1
 111 460 l 1
 137 609 240 726 415 726 c 4
 559.890625 726 631.501953125 630.407226562 631.501953125 535.737304688 c 0
 631.501953125 413.270507812 563.538085938 329.118164062 480 267 c 6
EndSplineSet
EndChar

StartChar: four
Encoding: 52 52 68
Width: 623
VWidth: 0
Flags: HMW
LayerCount: 2
Fore
SplineSet
17 95 m 1
 138 215 l 1
 656 215 l 1
 635 95 l 1
 17 95 l 1
167 105 m 1
 17 95 l 1
 644 770 l 1
 607 580 l 1
 167 105 l 1
477 560 m 5
 644 770 l 1
 508 0 l 1
 378 0 l 5
 477 560 l 5
EndSplineSet
EndChar

StartChar: slash
Encoding: 47 47 69
Width: 665
VWidth: 0
Flags: HMW
LayerCount: 2
Fore
SplineSet
633 700 m 1
 773 700 l 1
 129 -150 l 5
 -11 -150 l 1
 633 700 l 1
EndSplineSet
EndChar

StartChar: backslash
Encoding: 92 92 70
Width: 565
VWidth: 0
Flags: HMW
LayerCount: 2
Fore
SplineSet
138 700 m 1
 263 700 l 1
 550 0 l 1
 425 0 l 5
 138 700 l 1
EndSplineSet
EndChar

StartChar: eight
Encoding: 56 56 71
Width: 556
VWidth: 0
Flags: HMW
LayerCount: 2
Fore
SplineSet
396 725 m 0
 509.39453125 725 597.430664062 648.416015625 597.430664062 553.241210938 c 0
 597.430664062 397.939453125 461.412554607 345 339 345 c 0
 235.324633513 345 144.653320312 397.262695312 144.653320312 500.106445312 c 0
 144.653320312 643.520507812 285.32421875 725 396 725 c 0
279.944557562 494.095869319 m 0
 279.944557562 454.562845108 302.051378728 425 353 425 c 0
 418.505315301 425 458.165935262 474.843982391 458.165935262 538.607907877 c 0
 458.165935262 583.955293121 428.3473377 605 385 605 c 0
 330.594435583 605 279.944557562 567.714558767 279.944557562 494.095869319 c 0
349 400 m 0
 453.671203921 400 563.313476562 335.323242188 563.313476562 220.69140625 c 0
 563.313476562 56.93359375 422.846679688 -25 284 -25 c 0
 153.024414062 -25 60.154296875 50.044921875 60.154296875 163.583984375 c 4
 60.154296875 312.006835938 224.778804852 400 349 400 c 0
199.597641675 179.947342592 m 0
 199.597641675 124.880598816 238.104492188 95 295 95 c 0
 362.551757812 95 427.884391334 141.740340799 427.884391334 225.735535825 c 0
 427.884391334 277.727393499 391.510347292 320 334 320 c 0
 262.721635593 320 199.597641675 256.79021217 199.597641675 179.947342592 c 0
EndSplineSet
EndChar

StartChar: three
Encoding: 51 51 73
Width: 566
VWidth: 0
Flags: HMW
LayerCount: 2
Fore
SplineSet
317 335 m 1
 332 419 l 1
 425.63841257 419 462.995606314 461.506988868 462.995606314 537.24498961 c 0
 462.995606314 575.975887183 440.193869822 600 389 600 c 0
 344 600 302 572 294 526 c 1
 163 526 l 1
 183 640 281 725 411 725 c 0
 534.110351562 725 602.265625 641.5390625 602.265625 553.094726562 c 0
 602.265625 401.283203125 477.976948902 335 317 335 c 1
284 -25 m 0
 179.995117188 -25 69.9256440015 42.4709966888 69.9256440015 151.006443494 c 0
 69.9256440015 165.006590928 71.257910728 179.690001565 74 195 c 1
 210 195 l 1
 208.955319906 189.080146134 208.436107756 183.254607027 208.436107756 177.581248771 c 0
 208.436107756 134.378185821 238.544921875 100 306 100 c 4
 387.751953125 100 426.6234949 153.579274768 426.6234949 221.821063228 c 0
 426.6234949 275.758829462 389.930521548 305 312 305 c 1
 327 389 l 1
 466.279585308 389 562.764648438 330.553710938 562.764648438 216.247070312 c 0
 562.764648438 62.130859375 472.932617188 -25 284 -25 c 0
EndSplineSet
EndChar

StartChar: five
Encoding: 53 53 74
Width: 604
VWidth: 0
Flags: HMW
LayerCount: 2
Fore
SplineSet
285 700 m 1
 430 700 l 1
 309 417 l 1
 131 297 l 1
 285 700 l 1
285 700 m 1
 655 700 l 1
 636 590 l 1
 266 590 l 1
 285 700 l 1
295 -25 m 0
 176 -25 74 42 42 122 c 1
 168 206 l 1
 188 146 231 105 308 105 c 0
 393.72265625 105 465.325347916 162.445692552 465.325347916 265.562369224 c 0
 465.325347916 325.117077457 422.155254446 360 352 360 c 4
 275 360 231 347 131 297 c 1
 251 403 l 1
 308 463 374 475 443 475 c 0
 524.326171875 475 611.11328125 405.071289062 611.11328125 284.287109375 c 0
 611.11328125 56.70703125 455.424804688 -25 295 -25 c 0
EndSplineSet
EndChar

StartChar: six
Encoding: 54 54 75
Width: 626
VWidth: 0
Flags: HMW
LayerCount: 2
Fore
SplineSet
468 700 m 1
 642 700 l 1
 336 385 l 1
 175 405 l 1
 468 700 l 1
175 405 m 0
 184.042702758 414.042702758 193.812254167 416.907191988 203.897861958 416.907191988 c 0
 221.334505612 416.907191988 239.715832479 408.345318087 256.919063905 408.345318087 c 0
 262.777262422 408.345318087 268.498849023 409.338152753 274 412 c 1
 323 440 364 473 447 473 c 0
 552.022239887 473 631.341796875 381.997070312 631.341796875 267.419921875 c 0
 631.341796875 66.8994140625 487.291015625 -25 319 -25 c 0
 195.263671875 -25 76.50390625 61.310546875 76.50390625 200.544921875 c 4
 76.50390625 285.50390625 130.520901498 359.250070112 175 405 c 0
227.032226562 208.827148438 m 4
 227.032226562 152.53125 258.831903573 100 331 100 c 0
 413.287707087 100 485.967773438 151.130859375 485.967773438 251.295898438 c 0
 485.967773438 318.02734375 449.168096427 362 377 362 c 0
 284.919364414 362 227.032226562 288.733398438 227.032226562 208.827148438 c 4
EndSplineSet
EndChar

StartChar: seven
Encoding: 55 55 76
Width: 550
VWidth: 0
Flags: HMW
LayerCount: 2
Fore
SplineSet
131 575 m 1
 153 700 l 1
 673 700 l 1
 581 575 l 1
 131 575 l 1
519 700 m 1
 673 700 l 1
 250 0 l 5
 96 0 l 1
 519 700 l 1
EndSplineSet
EndChar

StartChar: plus
Encoding: 43 43 77
Width: 670
VWidth: 0
Flags: HMW
LayerCount: 2
Fore
SplineSet
99 195 m 1
 121 320 l 1
 661 320 l 5
 639 195 l 5
 99 195 l 1
358 525 m 1
 498 525 l 5
 403 -10 l 5
 263 -10 l 1
 358 525 l 1
EndSplineSet
EndChar

StartChar: percent
Encoding: 37 37 79
Width: 851
VWidth: 0
Flags: HMW
LayerCount: 2
Fore
SplineSet
233 550 m 4
 225 504 250 475 297 475 c 4
 344 475 379 504 387 550 c 4
 395 596 370 625 323 625 c 4
 276 625 241 596 233 550 c 4
127 550 m 4
 145 654 241 725 341 725 c 4
 441 725 511 654 493 550 c 4
 475 446 379 375 279 375 c 4
 179 375 109 446 127 550 c 4
587 150 m 4
 579 104 604 75 651 75 c 4
 698 75 733 104 741 150 c 4
 749 196 725 225 678 225 c 4
 631 225 595 196 587 150 c 4
481 150 m 4
 499 254 595 325 695 325 c 4
 795 325 865 254 847 150 c 4
 829 46 734 -25 634 -25 c 4
 534 -25 463 46 481 150 c 4
716 700 m 5
 831 700 l 5
 258 0 l 5
 143 0 l 5
 716 700 l 5
EndSplineSet
EndChar

StartChar: ampersand
Encoding: 38 38 80
Width: 675
VWidth: 0
Flags: HMW
LayerCount: 2
Fore
SplineSet
614 564 m 5
 614 457 483 403 414 368 c 0
 333.048926689 327.024765361 191.255149681 297.487849895 191.255149681 181.417914346 c 0
 191.255149681 126.743210977 239.825611785 95 312 95 c 0
 449 95 566 229 645 329 c 1
 731 255 l 1
 634 135 490 -25 301 -25 c 0
 139.323242188 -25 41.0654296875 46.8505859375 41.0654296875 167.71484375 c 0
 41.0654296875 349.702148438 281.145590962 394.667113362 359 425 c 0
 440 457 486 498 486 554 c 1
 614 564 l 5
267 364 m 1
 234.245715048 415.5879988 205.514648438 456.389648438 205.514648438 519.115234375 c 0
 205.514648438 637.180664062 309.896484375 726 432 726 c 0
 547 726 614 648 614 564 c 5
 486 554 l 1
 486 580 473 605 421 605 c 0
 369.73828125 605 334.4765625 578.60546875 334.4765625 524.201171875 c 0
 334.4765625 482.447265625 355.607421875 443.998046875 393 385 c 1
 695 0 l 1
 544 0 l 1
 267 364 l 1
EndSplineSet
EndChar

StartChar: question
Encoding: 63 63 81
Width: 557
VWidth: 0
Flags: HMW
LayerCount: 2
Fore
SplineSet
241 360 m 1
 381 360 l 1
 338 170 l 1
 228 170 l 1
 241 360 l 1
481.197562152 522.848770743 m 0
 481.197562152 578.311702153 448.018554688 605 386 605 c 0
 339 605 291 571 251 521 c 5
 163 597 l 1
 221 667 288 725 397 725 c 0
 527.397460938 725 619.162109375 654.551757812 619.162109375 535.784179688 c 0
 619.162109375 346.990234375 446.650240433 260 322 260 c 1
 287 360 l 1
 411.839956271 360 481.197562152 439.072444254 481.197562152 522.848770743 c 0
EndSplineSet
Refer: 54 46 N 1 0 0 1 130 0 2
EndChar

StartChar: parenleft
Encoding: 40 40 82
Width: 310
VWidth: 0
Flags: HMW
LayerCount: 2
Fore
SplineSet
308 780 m 5
 433 780 l 5
 307.444335938 583.819335938 215.34765625 386.747070312 215.34765625 109.420898438 c 4
 215.34765625 1.544921875 231.657226562 -103.376953125 260 -200 c 5
 134 -200 l 5
 101.440429688 -109.556640625 87.6953125 -1.841796875 87.6953125 98.759765625 c 4
 87.6953125 372.885742188 168.6171875 582.759765625 308 780 c 5
EndSplineSet
EndChar

StartChar: asterisk
Encoding: 42 42 84
Width: 592
VWidth: 0
Flags: HMW
LayerCount: 2
Fore
SplineSet
573 622 m 1
 590 508 l 1
 391 467 l 1
 379 543 l 1
 573 622 l 1
527 383 m 1
 417 312 l 1
 349 481 l 1
 422 529 l 1
 527 383 l 1
285 312 m 1
 200 383 l 1
 357 529 l 1
 413 481 l 1
 285 312 l 1
182 508 m 1
 239 622 l 1
 404 543 l 1
 366 467 l 1
 182 508 l 1
359 700 m 1
 479 700 l 1
 425 505 l 1
 345 505 l 1
 359 700 l 1
EndSplineSet
EndChar

StartChar: less
Encoding: 60 60 85
Width: 640
VWidth: 0
Flags: HMW
LayerCount: 2
Fore
SplineSet
117 295 m 1
 232 285 l 1
 223 230 l 1
 104 220 l 1
 117 295 l 1
226 226 m 5
 117 295 l 1
 664 505 l 1
 641 371 l 5
 226 226 l 5
104 220 m 1
 234 287 l 1
 597 132 l 1
 577 10 l 1
 104 220 l 1
EndSplineSet
EndChar

StartChar: bracketleft
Encoding: 91 91 87
Width: 340
VWidth: 0
Flags: HMW
LayerCount: 2
Fore
SplineSet
176 -215 m 1
 195 -105 l 5
 301 -105 l 5
 282 -215 l 1
 176 -215 l 1
331 665 m 1
 352 785 l 1
 458 785 l 1
 437 665 l 1
 331 665 l 1
223 785 m 1
 357 785 l 1
 181 -215 l 1
 47 -215 l 1
 223 785 l 1
EndSplineSet
EndChar

StartChar: asciicircum
Encoding: 94 94 89
Width: 510
VWidth: 0
Flags: HMW
LayerCount: 2
Fore
SplineSet
215 710 m 1
 295 710 l 1
 285 625 l 5
 225 625 l 5
 215 710 l 1
235 625 m 5
 295 710 l 1
 465 460 l 1
 345 460 l 1
 235 625 l 5
215 710 m 1
 275 625 l 5
 165 460 l 1
 45 460 l 1
 215 710 l 1
EndSplineSet
EndChar

StartChar: grave
Encoding: 96 96 91
Width: 375
VWidth: 0
Flags: HMW
LayerCount: 2
Fore
SplineSet
170 660 m 5
 293 700 l 1
 415 540 l 1
 324 510 l 5
 170 660 l 5
EndSplineSet
EndChar

StartChar: braceleft
Encoding: 123 123 92
Width: 376
VWidth: 0
Flags: HMW
LayerCount: 2
Fore
SplineSet
158 360 m 1
 134 220 l 1
 94 220 l 1
 118 360 l 1
 158 360 l 1
153 330 m 1
 262 330 295 179 279 90 c 1
 146 100 l 1
 159 176 122 210 94 220 c 1
 94 220 147 315 153 330 c 1
251 -200 m 1
 301 -85 l 1
 331 -85 l 1
 311 -200 l 1
 251 -200 l 1
117 -60 m 1
 147 110 l 1
 279 90 l 1
 257 -35 l 1
 117 -60 l 1
301 -85 m 1
 251 -200 l 5
 157 -200 96 -179 117 -60 c 1
 257 -35 l 1
 252 -61 266 -85 296 -85 c 2
 301 -85 l 1
118 360 m 1
 150 370 200 404 213 480 c 1
 349 490 l 1
 333 401 248 250 139 250 c 1
 139 266 118 360 118 360 c 1
424 780 m 1
 484 780 l 1
 463 665 l 1
 433 665 l 1
 424 780 l 1
241 640 m 1
 371 615 l 1
 349 490 l 1
 211 470 l 1
 241 640 l 1
433 665 m 1
 428 665 l 2
 398 665 376 641 371 615 c 1
 241 640 l 1
 262 759 340 780 424 780 c 5
 433 665 l 1
EndSplineSet
EndChar

StartChar: asciitilde
Encoding: 126 126 94
Width: 532
VWidth: 0
Flags: HMW
LayerCount: 2
Fore
SplineSet
181 176 m 5
 86 181 l 5
 86 188 86 196 88 205 c 4
 93 226 111 271 133 295 c 4
 165 330 202 347 260 347 c 4
 296 347 334 326 366 294 c 4
 389 271 404 257 421 257 c 4
 443 257 454 270 460 296 c 4
 462 304 462 313 461 323 c 5
 562 318 l 5
 562 310 561 300 559 290 c 4
 554 270 538 222 517 199 c 4
 485 165 453 152 410 152 c 4
 369 152 334 173 301 205 c 4
 278 228 258 243 235 243 c 4
 207 243 189 227 182 198 c 4
 180 191 180 184 181 176 c 5
EndSplineSet
EndChar

StartChar: sterling
Encoding: 163 163 97
Width: 536
VWidth: 0
Flags: HMW
LayerCount: 2
Fore
SplineSet
35 0 m 1
 177 125 l 1
 510 125 l 1
 488 0 l 1
 35 0 l 1
143 518 m 5
 286 520 l 1
 266 404 366 376 346 264 c 0
 327 158 210 70 132 50 c 1
 35 0 l 1
 151 102 209 181 225 269 c 4
 242 363 123 402 143 518 c 5
105 380 m 1
 465 380 l 1
 445 265 l 1
 85 265 l 1
 105 380 l 1
484 469 m 1
 493 542 463 596 397 596 c 0
 337 596 294 566 286 520 c 1
 143 518 l 1
 166 647 271 725 425 725 c 0
 588 725 616 592 605 502 c 1
 484 469 l 1
EndSplineSet
EndChar

StartChar: currency
Encoding: 164 164 98
Width: 585
VWidth: 0
Flags: HMW
LayerCount: 2
Fore
SplineSet
117 493 m 1
 198 563 l 1
 276 469 l 1
 194 400 l 1
 117 493 l 1
106 37 m 1
 49 107 l 1
 158 200 l 1
 216 131 l 1
 106 37 l 1
532 400 m 1
 475 469 l 1
 585 563 l 1
 642 493 l 1
 532 400 l 1
415 131 m 1
 496 200 l 1
 574 107 l 1
 493 37 l 1
 415 131 l 1
92 300 m 0
 117 439 254 550 389 550 c 0
 524 550 623 439 598 300 c 0
 573 161 436 50 301 50 c 0
 166 50 67 161 92 300 c 0
218 300 m 4
 205 224 241 165 321 165 c 4
 401 165 459 224 472 300 c 4
 485 376 449 435 369 435 c 4
 289 435 231 376 218 300 c 4
EndSplineSet
EndChar

StartChar: brokenbar
Encoding: 166 166 100
Width: 329
VWidth: 0
Flags: HMW
LayerCount: 2
Fore
SplineSet
223 695 m 1
 352 695 l 5
 307 445 l 5
 178 445 l 1
 223 695 l 1
274 255 m 5
 230 5 l 5
 101 5 l 1
 145 255 l 1
 274 255 l 5
EndSplineSet
EndChar

StartChar: section
Encoding: 167 167 101
Width: 448
VWidth: 0
Flags: HMW
LayerCount: 2
Fore
SplineSet
278 275 m 1
 328 275 362 323 369 363 c 1
 493 370 l 1
 476 271 371 240 272 240 c 1
 278 275 l 1
409 559 m 1
 396 597 374 614 337 614 c 0
 297 614 285 600 282 584 c 5
 153 589 l 1
 166 665 241 720 355 720 c 0
 448 720 514 671 523 620 c 1
 409 559 l 1
153 589 m 1
 282 584 l 5
 277 558 315 537 362 516 c 0
 423 489 505 437 493 370 c 1
 369 363 l 1
 374 393 337 414 288 435 c 0
 229 460 139 512 153 589 c 1
112 359 m 1
 244 369 l 1
 236 323 274 307 321 286 c 0
 382 259 466 217 451 130 c 1
 318 133 l 1
 323 163 294 174 245 195 c 0
 186 220 95 262 112 359 c 1
156 171 m 1
 158 115 195 95 252 95 c 0
 302 95 314 113 318 133 c 1
 451 130 l 1
 432 21 324 -30 225 -30 c 0
 100 -30 42 42 41 117 c 1
 156 171 l 1
328 454 m 1
 264 434 251 410 244 369 c 1
 112 359 l 1
 125 435 219 480 333 480 c 1
 328 454 l 1
EndSplineSet
EndChar

StartChar: copyright
Encoding: 169 169 103
Width: 800
VWidth: 0
Flags: HMW
LayerCount: 2
Fore
SplineSet
151.70727982 290.529311312 m 4
 151.70727982 143.377956237 253.900734018 40 407 40 c 4
 591.815740073 40 772.256303515 193.383465659 772.256303515 409.083787466 c 4
 772.256303515 556.440805619 669.233411001 660 516 660 c 4
 331.047298709 660 151.70727982 506.349375041 151.70727982 290.529311312 c 4
520 710 m 4
 700.657226562 710 828.28125 581.579101562 828.28125 409.326171875 c 4
 828.28125 165.708007812 620.5546875 -10 403 -10 c 4
 222.475585938 -10 95.6826171875 108.247070312 95.6826171875 290.293945312 c 4
 95.6826171875 534.02734375 302.310546875 710 520 710 c 4
EndSplineSet
Refer: 3 67 N 0.6 0 0 0.6 196 140 2
EndChar

StartChar: registered
Encoding: 174 174 104
Width: 800
VWidth: 0
Flags: HMW
LayerCount: 2
Fore
SplineSet
151.70727982 290.529311312 m 0
 151.70727982 143.377956237 253.900734018 40 407 40 c 0
 591.815740073 40 772.256303515 193.383465659 772.256303515 409.083787466 c 0
 772.256303515 556.440805619 669.233411001 660 516 660 c 0
 331.047298709 660 151.70727982 506.349375041 151.70727982 290.529311312 c 0
520 710 m 0
 700.657226562 710 828.28125 581.579101562 828.28125 409.326171875 c 0
 828.28125 165.708007812 620.5546875 -10 403 -10 c 0
 222.475585938 -10 95.6826171875 108.247070312 95.6826171875 290.293945312 c 0
 95.6826171875 534.02734375 302.310546875 710 520 710 c 0
EndSplineSet
Refer: 13 82 S 0.6 0 0 0.6 256 150 2
EndChar

StartChar: logicalnot
Encoding: 172 172 110
Width: 620
VWidth: 0
Flags: HMW
LayerCount: 2
Fore
SplineSet
542 375 m 1
 667 375 l 1
 617 175 l 5
 492 175 l 5
 542 375 l 1
EndSplineSet
Refer: 62 45 N 2.45 0 0 1 52.75 100 2
EndChar

StartChar: plusminus
Encoding: 177 177 113
Width: 615
VWidth: 0
Flags: HMW
LayerCount: 2
Fore
SplineSet
72 40 m 5
 91 150 l 5
 576 150 l 5
 557 40 l 5
 72 40 l 5
121 315 m 5
 142 435 l 5
 627 435 l 5
 606 315 l 5
 121 315 l 5
336 570 m 5
 481 570 l 5
 412 180 l 5
 267 180 l 5
 336 570 l 5
EndSplineSet
EndChar

StartChar: acute
Encoding: 180 180 116
Width: 375
VWidth: 0
Flags: HMW
LayerCount: 2
Fore
SplineSet
441 660 m 1
 235 510 l 1
 154 540 l 5
 332 700 l 5
 441 660 l 1
EndSplineSet
EndChar

StartChar: paragraph
Encoding: 182 182 118
Width: 658
VWidth: 0
Flags: HMW
LayerCount: 2
Fore
SplineSet
392 590 m 5
 411 700 l 5
 641 700 l 5
 622 590 l 5
 392 590 l 5
601 700 m 5
 721 700 l 5
 559 -220 l 5
 439 -220 l 5
 601 700 l 5
411 700 m 5
 531 700 l 5
 369 -220 l 5
 249 -220 l 5
 411 700 l 5
336 270 m 5
 211 270 121 346 146 485 c 4
 171 624 286 700 411 700 c 5
 336 270 l 5
EndSplineSet
EndChar

StartChar: cedilla
Encoding: 184 184 121
Width: 350
Flags: HMW
LayerCount: 2
Fore
SplineSet
166 60 m 1
 277 60 l 1
 221.799804688 -53.7998046875 l 1
 193.289054433 -53.3668578808 144.540899001 -79.6478633277 86.7998046875 -117.799804688 c 1
 166 60 l 1
295.200195312 -126 m 5
 208.400390625 -126 l 5
 208.400390625 -112.400390625 197.200195312 -100 168.200195312 -100 c 4
 158 -100 109.400390625 -101.799804688 86.7998046875 -117.799804688 c 1
 150.799804688 -68.2001953125 l 1
 176.400390625 -52.2001953125 208.799804688 -42 222.200195312 -42 c 0
 255.200195312 -42 295.200195312 -66.599609375 295.200195312 -126 c 5
295.200195312 -126 m 1
 295.200195312 -207.400390625 233.200195312 -230 168.200195312 -230 c 0
 130.799804688 -230 97.400390625 -217.799804688 69.7998046875 -189.799804688 c 1
 112 -132.400390625 l 1
 130.599609375 -148.400390625 142 -156 168.200195312 -156 c 4
 197.200195312 -156 208.400390625 -139.599609375 208.400390625 -126 c 1
 295.200195312 -126 l 1
EndSplineSet
EndChar

StartChar: multiply
Encoding: 215 215 123
Width: 596
VWidth: 0
Flags: HMW
LayerCount: 2
Fore
SplineSet
324 273 m 1
 369 273 l 1
 362 232 l 1
 317 232 l 1
 324 273 l 1
296 202 m 1
 403 293 l 1
 568 98 l 1
 455 2 l 1
 296 202 l 1
118 412 m 1
 231 508 l 1
 390 308 l 1
 283 217 l 1
 118 412 l 1
389 217 m 1
 314 308 l 5
 545 508 l 5
 624 412 l 1
 389 217 l 1
141 2 m 1
 62 98 l 5
 297 293 l 5
 372 202 l 1
 141 2 l 1
EndSplineSet
EndChar

StartChar: Thorn
Encoding: 222 222 125
Width: 640
VWidth: 0
Flags: HMW
LayerCount: 2
Fore
SplineSet
345 115 m 1
 367 240 l 1
 447 240 507 274 520 350 c 0
 533 426 486 460 406 460 c 5
 428 585 l 1
 593 585 688 509 660 350 c 0
 632 191 510 115 345 115 c 1
147 115 m 1
 169 240 l 1
 367 240 l 1
 345 115 l 1
 147 115 l 1
208 460 m 1
 230 585 l 1
 428 585 l 1
 406 460 l 1
 208 460 l 1
203 700 m 1
 343 700 l 1
 220 0 l 1
 80 0 l 1
 203 700 l 1
EndSplineSet
EndChar

StartChar: circumflex
Encoding: 710 710 128
Width: 480
VWidth: 0
Flags: HMW
LayerCount: 2
Fore
SplineSet
326 660 m 1
 374 760 l 1
 528 610 l 1
 435 540 l 1
 326 660 l 1
374 760 m 1
 406 660 l 5
 255 540 l 5
 168 610 l 1
 374 760 l 1
EndSplineSet
EndChar

StartChar: ogonek
Encoding: 731 731 129
Width: 260
VWidth: 0
Flags: HMW
LayerCount: 2
Fore
SplineSet
194 -120 m 1
 227 -180 l 1
 212 -200 182 -220 139 -220 c 0
 55 -220 6 -189 6 -120 c 5
 106 -100 l 1
 106 -126 124 -140 144 -140 c 0
 170 -140 180 -133 194 -120 c 1
106 -100 m 1
 6 -120 l 1
 6 -51 77.7509765625 -11 147.750976562 25 c 1
 188.750976562 0 l 1
 136.690429688 -22.27734375 106.296875 -72.6220703125 106 -100 c 1
EndSplineSet
EndChar

StartChar: tilde
Encoding: 732 732 130
Width: 530
VWidth: 0
Flags: HMW
LayerCount: 2
Fore
SplineSet
182 635 m 1
 201 684 242 727 317 727 c 0
 356 727 389 697 403 687 c 0
 424 673 433 672 451 672 c 0
 470 672 505 686 531 718 c 5
 587 665 l 5
 565 628 510 572 440 572 c 0
 406 572 379 595 358 607 c 0
 338 619 324 629 299 629 c 0
 263 629 250 603 247 588 c 1
 182 635 l 1
EndSplineSet
EndChar

StartChar: ring
Encoding: 730 730 131
Width: 278
VWidth: 0
Flags: HMW
LayerCount: 2
Fore
SplineSet
170 785 m 4
 170 844.5 211.5 885 274 885 c 4
 336.5 885 378 844.5 378 785 c 4
 378 725.5 336.5 685 274 685 c 4
 211.5 685 170 725.5 170 785 c 4
230.5 785 m 4
 230.5 752 249 737.5 274 737.5 c 4
 299 737.5 317.5 752 317.5 785 c 4
 317.5 818 299 832.5 274 832.5 c 4
 249 832.5 230.5 818 230.5 785 c 4
EndSplineSet
EndChar

StartChar: quoteright
Encoding: 8217 8217 138
Width: 295
VWidth: 0
Flags: HMW
LayerCount: 2
Fore
SplineSet
238 700 m 5
 388 700 l 1
 248 470 l 1
 153 470 l 1
 238 700 l 5
EndSplineSet
EndChar

StartChar: perthousand
Encoding: 8240 8240 143
Width: 1281
VWidth: 0
Flags: HMW
LayerCount: 2
Fore
SplineSet
1017 150 m 4
 1009 104 1034 75 1081 75 c 4
 1128 75 1163 104 1171 150 c 4
 1179 196 1155 225 1108 225 c 4
 1061 225 1025 196 1017 150 c 4
911 150 m 4
 929 254 1025 325 1125 325 c 4
 1225 325 1295 254 1277 150 c 4
 1259 46 1164 -25 1064 -25 c 4
 964 -25 893 46 911 150 c 4
233 550 m 4
 225 504 250 475 297 475 c 4
 344 475 379 504 387 550 c 4
 395 596 370 625 323 625 c 4
 276 625 241 596 233 550 c 4
127 550 m 4
 145 654 241 725 341 725 c 4
 441 725 511 654 493 550 c 4
 475 446 379 375 279 375 c 4
 179 375 109 446 127 550 c 4
587 150 m 4
 579 104 604 75 651 75 c 4
 698 75 733 104 741 150 c 4
 749 196 725 225 678 225 c 4
 631 225 595 196 587 150 c 4
481 150 m 4
 499 254 595 325 695 325 c 4
 795 325 865 254 847 150 c 4
 829 46 734 -25 634 -25 c 4
 534 -25 463 46 481 150 c 4
716 700 m 5
 831 700 l 5
 258 0 l 5
 143 0 l 5
 716 700 l 5
EndSplineSet
EndChar

StartChar: guilsinglleft
Encoding: 8249 8249 144
Width: 350
VWidth: 0
Flags: HMW
LayerCount: 2
Fore
SplineSet
161 235 m 1
 75 255 l 1
 308 500 l 1
 368 445 l 1
 161 235 l 1
75 255 m 1
 160 275 l 5
 291 55 l 5
 222 10 l 1
 75 255 l 1
EndSplineSet
EndChar

StartChar: uni2031
Encoding: 8241 8241 146
Width: 1701
VWidth: 0
Flags: HMW
LayerCount: 2
Fore
SplineSet
1437 150 m 4
 1429 104 1454 75 1501 75 c 4
 1548 75 1583 104 1591 150 c 4
 1599 196 1575 225 1528 225 c 4
 1481 225 1445 196 1437 150 c 4
1331 150 m 4
 1349 254 1445 325 1545 325 c 4
 1645 325 1715 254 1697 150 c 4
 1679 46 1584 -25 1484 -25 c 4
 1384 -25 1313 46 1331 150 c 4
1017 150 m 0
 1009 104 1034 75 1081 75 c 0
 1128 75 1163 104 1171 150 c 0
 1179 196 1155 225 1108 225 c 0
 1061 225 1025 196 1017 150 c 0
911 150 m 0
 929 254 1025 325 1125 325 c 0
 1225 325 1295 254 1277 150 c 0
 1259 46 1164 -25 1064 -25 c 0
 964 -25 893 46 911 150 c 0
233 550 m 0
 225 504 250 475 297 475 c 0
 344 475 379 504 387 550 c 0
 395 596 370 625 323 625 c 0
 276 625 241 596 233 550 c 0
127 550 m 0
 145 654 241 725 341 725 c 0
 441 725 511 654 493 550 c 0
 475 446 379 375 279 375 c 0
 179 375 109 446 127 550 c 0
587 150 m 0
 579 104 604 75 651 75 c 0
 698 75 733 104 741 150 c 0
 749 196 725 225 678 225 c 0
 631 225 595 196 587 150 c 0
481 150 m 0
 499 254 595 325 695 325 c 0
 795 325 865 254 847 150 c 0
 829 46 734 -25 634 -25 c 0
 534 -25 463 46 481 150 c 0
716 700 m 1
 831 700 l 1
 258 0 l 1
 143 0 l 1
 716 700 l 1
EndSplineSet
EndChar

StartChar: Euro
Encoding: 8364 8364 148
Width: 700
VWidth: 0
Flags: HMW
LayerCount: 2
Fore
SplineSet
347 350 m 4
 318 187 370 100 488 100 c 4
 545 100 601 122 649 162 c 5
 623 16 l 5
 573 -10 520 -25 466 -25 c 4
 262 -25 175 141 212 350 c 4
 249 559 394 726 598 726 c 4
 652 726 701 711 741 685 c 5
 715 538 l 5
 681 578 633 600 576 600 c 4
 458 600 376 513 347 350 c 4
EndSplineSet
Refer: 62 45 S 2.375 0 0 0.64 -6.875 159 2
Refer: 62 45 S 2.505 0 0 0.64 -7.525 279 2
EndChar

StartChar: fraction
Encoding: 8260 8260 149
Width: 705
VWidth: 0
Flags: HMW
LayerCount: 2
Fore
SplineSet
673 700 m 5
 778 700 l 1
 155 0 l 1
 50 0 l 1
 673 700 l 5
EndSplineSet
EndChar

StartChar: AE
Encoding: 198 198 191
Width: 1060
VWidth: 0
Flags: HMW
LayerCount: 2
Fore
SplineSet
291 165 m 1
 313 290 l 1
 613 290 l 1
 591 165 l 1
 291 165 l 1
543 700 m 1
 675 660 l 5
 185 0 l 5
 20 0 l 1
 543 700 l 1
637 0 m 1
 659 125 l 1
 1012 125 l 1
 990 0 l 1
 637 0 l 1
746 575 m 1
 543 700 l 1
 1113 700 l 1
 1091 575 l 1
 746 575 l 1
693 320 m 1
 715 440 l 1
 1048 440 l 1
 1026 320 l 1
 693 320 l 1
658 700 m 1
 798 700 l 1
 675 0 l 1
 535 0 l 1
 658 700 l 1
EndSplineSet
EndChar

StartChar: germandbls
Encoding: 223 223 219
Width: 605
VWidth: 0
Flags: HMW
LayerCount: 2
Fore
SplineSet
167 606 m 1
 302 606 l 1
 195 0 l 1
 60 0 l 1
 167 606 l 1
340 415 m 1
 357 510 l 1
 467 510 498 560 504 596 c 0
 512 642 481 675 411 675 c 0
 351 675 310 652 302 606 c 1
 167 606 l 1
 190 735 298 800 433 800 c 0
 598 800 661 715 642 606 c 0
 621 487 515 415 340 415 c 1
307 115 m 1
 387 115 453 139 472 245 c 4
 487 331 443 375 333 375 c 1
 350 470 l 1
 525 470 643 384 615 225 c 4
 587 66 440 -10 285 -10 c 1
 307 115 l 1
EndSplineSet
EndChar

StartChar: ae
Encoding: 230 230 220
Width: 875
VWidth: 0
Flags: HMW
LayerCount: 2
Fore
SplineSet
381 230 m 1
 418 270 l 1
 544 270 l 1
 527 230 l 1
 381 230 l 1
510 195 m 1
 528 294 l 1
 876 294 l 1
 877 195 l 1
 510 195 l 1
877 195 m 1
 749 250 l 1
 764 336 736 385 666 385 c 0
 606 385 537 336 524 260 c 1
 431 230 l 1
 456 369 539 485 694 485 c 4
 844 485 913 384 887 239 c 0
 886 231 882 214 877 195 c 1
381 230 m 1
 517 230 l 1
 500 134 545 85 613 85 c 0
 670 85 712 116 739 156 c 1
 861 127 l 1
 812 52 733 -20 594 -20 c 0
 429 -20 356 91 381 230 c 1
393 302 m 1
 533 330 l 1
 498 130 l 1
 363 130 l 1
 393 302 l 1
153 323 m 1
 132 424 l 1
 170 449 251 485 334 485 c 0
 469 485 508 419 491 320 c 1
 393 302 l 1
 401 347 362 363 312 363 c 0
 246 363 178 339 153 323 c 1
176 144 m 0
 170 110 199 91 244 91 c 0
 304 91 360 114 372 180 c 1
 419 130 l 1
 403 41 289 -20 194 -20 c 0
 79 -20 22 41 38 130 c 0
 59 247 176 289 247 289 c 0
 345 289 394 257 414 233 c 1
 402 165 l 1
 378 187 333 198 285 198 c 0
 231 198 183 183 176 144 c 0
EndSplineSet
EndChar

StartChar: dotlessi
Encoding: 305 305 227
Width: 266
VWidth: 0
Flags: HMW
LayerCount: 2
Fore
SplineSet
146 460 m 1
 282 460 l 1
 201 0 l 1
 65 0 l 1
 146 460 l 1
EndSplineSet
EndChar

StartChar: kgreenlandic
Encoding: 312 312 228
Width: 545
VWidth: 0
Flags: HMW
LayerCount: 2
Fore
SplineSet
218 270 m 1
 388 270 l 1
 555 0 l 1
 385 0 l 1
 218 270 l 1
442 460 m 1
 616 460 l 1
 388 270 l 1
 214 270 l 1
 442 460 l 1
141 460 m 5
 276 460 l 5
 195 0 l 1
 60 0 l 1
 141 460 l 5
EndSplineSet
EndChar

StartChar: thorn
Encoding: 254 254 243
Width: 620
VWidth: 0
Flags: HMW
LayerCount: 2
Fore
SplineSet
328 780 m 1
 151 -220 l 5
 16 -220 l 5
 193 780 l 1
 328 780 l 1
631 230 m 0
 601 61 478 -20 353 -20 c 0
 238 -20 169 81 195 230 c 0
 221 379 327 480 442 480 c 0
 567 480 661 399 631 230 c 0
495 230 m 0
 509 311 460 360 385 360 c 0
 315 360 248 326 231 230 c 0
 214 134 270 100 340 100 c 0
 415 100 479 139 495 230 c 0
EndSplineSet
EndChar

StartChar: breve
Encoding: 728 728 247
Width: 546
VWidth: 0
Flags: HMW
LayerCount: 2
Fore
SplineSet
255 850 m 5
 351 850 l 1
 346 824 362 790 412 790 c 4
 462 790 490 824 495 850 c 1
 591 850 l 5
 575 761 501 700 396 700 c 0
 291 700 239 761 255 850 c 5
EndSplineSet
EndChar

StartChar: eth
Encoding: 240 240 302
Width: 556
VWidth: 0
Flags: HMW
LayerCount: 2
Fore
SplineSet
369 700 m 1
 558 405 l 1
 406 385 l 1
 210 700 l 1
 369 700 l 1
592 230 m 0
 564 71 424 -25 274 -25 c 0
 124 -25 18 71 46 230 c 0
 71 369 191 473 310 473 c 0
 393 473 424 440 463 412 c 1
 489 397 539 435 558 405 c 0
 581 369 604 297 592 230 c 0
443 230 m 0
 456 301 427 362 342 362 c 0
 257 362 208 301 195 230 c 0
 182 159 211 100 296 100 c 0
 381 100 430 159 443 230 c 0
EndSplineSet
Refer: 62 45 S 1.5 0 0 1 174 320 2
EndChar

StartChar: OE
Encoding: 338 338 303
Width: 1034
VWidth: 0
Flags: HW
LayerCount: 2
Fore
SplineSet
621 0 m 1
 643 125 l 1
 996 125 l 1
 974 0 l 1
 621 0 l 1
722 575 m 1
 744 700 l 1
 1097 700 l 1
 1075 575 l 1
 722 575 l 1
674 300 m 1
 695 420 l 1
 1028 420 l 1
 1007 300 l 1
 674 300 l 1
682 700 m 1
 660 575 l 1
 497 575 l 1
 509 700 l 1
 682 700 l 1
581 125 m 1
 559 0 l 1
 406 0 l 1
 418 125 l 1
 581 125 l 1
661 0 m 1
 519 0 l 1
 642 700 l 1
 784 700 l 1
 661 0 l 1
497 575 m 1
 346.85546875 575 221.787109375 480.858398438 221.787109375 294.401367188 c 0
 221.787109375 199.4921875 297.9453125 125 418 125 c 1
 406 0 l 1
 219.447265625 0 79.8896484375 110.86328125 79.8896484375 283.538085938 c 0
 79.8896484375 558.970703125 268.818359375 700 509 700 c 1
 497 575 l 1
EndSplineSet
EndChar

StartChar: oe
Encoding: 339 339 304
Width: 925
VWidth: 0
Flags: HW
LayerCount: 2
Fore
SplineSet
364 485 m 0
 499.287109375 485 561.349609375 398.1171875 561.349609375 278.001953125 c 0
 561.349609375 107.586914062 452.78125 -25 294 -25 c 0
 178.712890625 -25 56.650390625 51.8828125 56.650390625 191.998046875 c 0
 56.650390625 382.413085938 225.21875 485 364 485 c 0
193.994701535 197.066464888 m 0
 193.994701535 130.441675961 234.767872188 90 304 90 c 0
 381.08149491 90 463.956562789 157.364347073 463.956562789 262.445660264 c 0
 463.956562789 329.360843704 422.400955311 370 353 370 c 0
 275.765124311 370 193.994701535 302.266473809 193.994701535 197.066464888 c 0
570 195 m 1
 588 294 l 1
 936 294 l 1
 937 195 l 1
 570 195 l 1
937 195 m 1
 809 250 l 1
 811.622070312 265.030273438 812.9296875 278.930664062 812.9296875 291.63671875 c 0
 812.9296875 351.630859375 783.765625 385 726 385 c 0
 668.674804688 385 603.133789062 340.270507812 586.06640625 270 c 1
 604 270 l 1
 587 230 l 1
 577 230 l 1
 574.559570312 216.215820312 573.396484375 203.401367188 573.396484375 191.561523438 c 0
 573.396484375 120.939453125 614.763671875 85 673 85 c 0
 730 85 772 116 799 156 c 1
 921 127 l 1
 872 52 803 -20 664 -20 c 0
 518.37109375 -20 476.618164062 86.466796875 476.618164062 182.3359375 c 0
 476.618164062 331.9453125 560.458984375 485 734 485 c 0
 856.567382812 485 951.490234375 406.111328125 951.490234375 287.680664062 c 0
 951.490234375 250.717773438 948.666992188 229.734375 937 195 c 1
EndSplineSet
EndChar

StartChar: a.alt
Encoding: 65536 -1 305
Width: 535
VWidth: 0
Flags: HW
LayerCount: 2
Fore
SplineSet
412 302 m 1
 552 330 l 1
 494 0 l 1
 359 0 l 1
 412 302 l 1
173 318 m 1
 151 424 l 1
 189 449 270 475 353 475 c 4
 488 475 569 429 552 330 c 1
 412 302 l 1
 420 347 383 363 333 363 c 0
 267 363 198 334 173 318 c 1
195 134 m 0
 195 100 218 91 263 91 c 0
 323 91 379 114 391 180 c 1
 398 130 l 1
 382 41 308 -10 213 -10 c 0
 108 -10 57 35 57 115 c 0
 57 212.00390625 144 280 265 280 c 0
 363 280 413 257 433 233 c 1
 421 165 l 1
 397 187 352 198 304 198 c 0
 250 198 195 173.05078125 195 134 c 0
EndSplineSet
EndChar
